<?xml version="1.0" encoding="utf-8"?>
<!-- Generator: Adobe Illustrator 23.0.1, SVG Export Plug-In . SVG Version: 6.00 Build 0)  -->
<svg version="1.1" xmlns="http://www.w3.org/2000/svg" xmlns:xlink="http://www.w3.org/1999/xlink" x="0px" y="0px"
	 viewBox="0 0 194 189" style="enable-background:new 0 0 194 189;" xml:space="preserve">
<style type="text/css">
	.st0{fill:#39B54A;}
	.st1{fill:#20A05D;}
	.st2{fill:#F7931E;stroke:#FBB03B;stroke-width:3;stroke-miterlimit:10;}
	.st3{fill:#FFFFFF;stroke:#E6E6E6;stroke-miterlimit:10;}
	.st4{fill:#29ABE2;stroke:#0071BC;stroke-width:0.75;stroke-miterlimit:10;}
	.st5{fill:#FFFFFF;}
	.st6{stroke:#1A1A1A;stroke-width:1.5;stroke-miterlimit:10;}
</style>
<g id="Layer_3">
	<g>
		<ellipse class="st0" cx="95" cy="97" rx="80" ry="77"/>
		<g>
			<g>
				<g>
					<g>
						<path class="st1" d="M173,97c0.26,0.26,0.85,0.11,0.71-0.59l-1.01-0.48L173,97z"/>
						<path class="st1" d="M174.67,92.2c-0.55-0.81-1.46-1.68-2.33-1.08c1.01,0.73,0.63,0.96,1.84,1.77
							c0.15,0.7-0.28,1.25-0.64,1.14c0.26,0.24-0.19,1.1,0.44,1.46c0.72-0.93,0.79-2.13,0.03-3.31
							C174.21,91.92,174.48,92.15,174.67,92.2z"/>
						<path class="st1" d="M141.56,32.72l0.31,0.36C141.81,32.95,141.7,32.83,141.56,32.72z"/>
						<path class="st1" d="M100.33,18.25c0.34,0,0.49-0.09,0.51-0.18C100.52,18.11,100.26,18.16,100.33,18.25z"/>
						<path class="st1" d="M92.73,17.02c0.17,0.02,0.3,0.04,0.45,0.06C93.01,16.99,92.84,16.95,92.73,17.02z"/>
						<path class="st1" d="M141.56,32.72l-0.8-0.93C140.52,32.02,141.13,32.34,141.56,32.72z"/>
						<path class="st1" d="M171.08,83.12c0.09,0.22,0.22,0.4,0.37,0.55c-0.08-0.18-0.15-0.36-0.21-0.54
							C171.19,83.13,171.14,83.13,171.08,83.12z"/>
						<path class="st1" d="M156.84,44.85l0.24,0.27c0.16,0,0.32-0.01,0.5-0.05L156.84,44.85z"/>
						<path class="st1" d="M166,56.82c-0.14-0.31-0.92,0.03-1.3,0.11c0.39-0.02,0.66,0.11,0.87,0.33
							C165.71,57.18,165.85,57.04,166,56.82z"/>
						<path class="st1" d="M173.72,79.22l0.21,0.38C173.87,79.5,173.8,79.33,173.72,79.22z"/>
						<path class="st1" d="M149.19,37.24c0.06-0.11,0.09-0.23,0.09-0.32C149.21,37,149.19,37.11,149.19,37.24z"/>
						<path class="st1" d="M169.2,112.95c0.06,0.02,0.1,0.02,0.15,0.03C169.28,112.89,169.23,112.85,169.2,112.95z"/>
						<path class="st1" d="M175.22,97l0.04,0.24c0.16,0.03,0.32,0.05,0.47,0.05L175.22,97z"/>
						<path class="st1" d="M78.59,17.44c0.03,0,0.04,0,0.07,0.01C79,17.29,78.8,17.34,78.59,17.44z"/>
						<path class="st1" d="M13.48,114.37c0.4-1.58,1.49,2.09,1.8-0.23C15.01,114.43,13.54,112.49,13.48,114.37z"/>
						<path class="st1" d="M171.13,82.74c-0.04-0.19-0.09-0.38-0.11-0.57C171.03,82.44,171.07,82.61,171.13,82.74z"/>
						<path class="st1" d="M15.28,114.14L15.28,114.14l0.03-0.24C15.3,114,15.29,114.06,15.28,114.14z"/>
						<path class="st1" d="M48.6,29.95c0.14,0.09,0.31,0.12,0.48,0.14C49.03,30.02,48.91,29.97,48.6,29.95z"/>
						<path class="st1" d="M70.95,21.04c-0.2,0.02-0.4,0.03-0.6,0.06C70.59,21.09,70.79,21.08,70.95,21.04z"/>
						<path class="st1" d="M39.34,38.44c-0.28,0.17-0.44,0.16-0.69,0.54c0.06,0,0.11,0,0.17-0.01
							C38.86,38.78,38.98,38.59,39.34,38.44z"/>
						<path class="st1" d="M30.37,47.76c0.09-0.01,0.19-0.05,0.28-0.08c0.07-0.11,0.15-0.23,0.22-0.35L30.37,47.76z"/>
						<path class="st1" d="M152.89,144.94c0.35-0.04,0.66,0.01,0.94,0.09C153.26,144.77,154.28,143.32,152.89,144.94z"/>
						<path class="st1" d="M171.55,83.03c-0.22-0.03-0.34-0.11-0.42-0.29c0.03,0.14,0.08,0.26,0.12,0.39
							C171.37,83.14,171.49,83.12,171.55,83.03z"/>
						<path class="st1" d="M43.39,43.76l-1.48,1.19C42.36,44.65,42.89,44.21,43.39,43.76z"/>
						<path class="st1" d="M74.17,167.79l0.45,0.02C74.46,167.74,74.3,167.73,74.17,167.79z"/>
						<path class="st1" d="M38.07,49.03c-0.44,0.05-0.81,0.2-1.15,0.4c0,0.1-0.02,0.2,0.02,0.31L38.07,49.03z"/>
						<path class="st1" d="M153.84,145.03C153.83,145.03,153.83,145.03,153.84,145.03C153.83,145.03,153.83,145.03,153.84,145.03z"
							/>
						<path class="st1" d="M159.69,133.82c-0.95,1.5,0.46,1.29,0.8,1.96c-0.95,1.99-1.24,0.39-2.12,0.68
							c-0.47,1.29-0.3,2.69-0.93,3.49c-0.19-0.05-0.36,0.07-0.41-0.25c-0.06,0.85-0.7,1.71-1.38,2.57c-0.67,0.87-1.31,1.8-1.47,2.78
							c-0.16,0.03-0.27,0.01-0.35-0.02c0.6,0.17,1.05,0.5,1.32,0.81c-0.54,0.63-0.53,1.63-1.27,1.38c0.36-0.37,0.17-0.6,0.16-0.93
							l-0.35,0.86c-1.29-0.12,0.53-1.13-0.04-1.64c-0.84,1.5-1.64,3.5-2.77,4.22c-0.9-0.54,1.89-2.4,0.03-1.81
							c0.55-0.38,1.13-0.75,1.67-1.16c-2.19,0.02,0.89-0.81-1.3-0.96c-1,0.82-1.42,1.41-1.84,2.02c-0.41,0.61-0.85,1.2-1.9,1.96
							c-0.05,0.81,0.71,0.49,0.66,1.3c-1.02,1.66-2.05,1.61-2.89,1.55c-0.86-0.08-1.54-0.18-2.19,1.17
							c-0.14,0.95,0.42,2.15-1.55,2.79l-0.15-1.33c-2.09,1.39-0.22,2.19-2.85,3.07c0.14-0.65,1.43-1.44,1.04-1.34
							c-1.93,0.2-0.62,1.25-1.75,1.96l-0.78-0.72c-1.1,0.76-2.16,1.73-3.33,2.61c-0.59,0.45-1.18,0.9-1.77,1.36
							c-0.61,0.43-1.26,0.82-1.91,1.2c0.02-0.35,0.33-0.86-0.43-0.83c-3.15,2.11-7.39,3.16-10.99,3.61
							c-0.35,0.42-0.69,0.86-1.05,1.26c-0.31,0.08-0.69-0.23-0.4-0.48c-1.44,0.05,0.09,0.56-0.47,1.07
							c-0.76,0.27-1.16-0.21-0.74-0.6c-2.15,1.46-6.61,3.18-9.36,2.66c0.16-0.1,0.31-0.23,0.47-0.34c-2.06-0.07-2.07,2.08-4.07,1.51
							l0.35-0.2c-4.46,0.09-9.46,0.91-12.8-0.6c-0.73,1.22-4.33-0.87-4.79,0.79c-2.43-1.19-1.68-1.36-5.07-2.55
							c-0.91-0.23-1.6,0.84-2.8,0.75l0.17-0.91l-1.78,0.6c-0.19-0.42-0.39-0.83-0.57-1.27l-1.12-0.06c0.41,0.17,0.8,0.65,0.67,0.89
							c-1.79-0.05-3.9-1.74-3.78-2.24c-1.36-0.18-2.75-0.31-4.1-0.57c0.21-0.32,0.89-0.19,1.48-0.23c-2.35,0.13-0.03-1.05-2.18-0.94
							c0.17,0.29-0.33,0.46-0.44,0.62c-0.75-0.84-2.78-1.77-4.41-2.21l0.56-0.45c-2.62-1.42-5.81-2.5-8.65-4.33
							c0.87,0.89,0.07,1.69-0.85,1.25l0.18-1.04c-0.87,0.17,0.7,0.86-0.83,0.79c-1.03-0.77-0.12-1.38,0.66-1.27
							c-0.5-0.17-0.99-0.35-1.47-0.56c0.09-0.29,0.47-0.22,0.75-0.48c-0.86,0.14-1.62-2.27-2.95-1.95l0.1-0.29
							c-2.67-2-4.05-2.72-6.14-4.49c-0.6,0.59-1.27-0.27-2.35-0.34c-1.3-1.61-2.41-3.66-4.07-5.44c-1.46-1-0.88,0.1-1.77-0.16
							c0.5-0.6-1.1-2.45,0.13-1.82c-0.97-1.1-1.59-1.79-2.28-2.57c-0.68-0.78-1.53-1.56-2.8-2.95c-0.04,0.51,0.11,0.97-0.24,0.92
							c-0.48-0.5-0.59-1.47-0.23-1.59l0.17,0.1c-0.84-0.7-1.42-1.68-1.9-2.74c-0.24-0.53-0.46-1.08-0.65-1.64
							c-0.16-0.57-0.33-1.14-0.49-1.71c-0.16-0.56-0.31-1.12-0.48-1.65c-0.15-0.54-0.3-1.06-0.49-1.54
							c-0.36-0.97-0.88-1.78-1.54-2.39l0.14,0.14c-0.68-0.95-1.4-1.89-2.06-2.88c-0.4-1.54,0.85,0.69,0.91-0.58
							c-1.22-1.51-1.67-2.93-1.94-4.28c-0.14-0.68-0.28-1.33-0.47-1.99c-0.16-0.67-0.39-1.33-0.78-2.03c0.79-1.4,0.4-3.4-0.11-5.52
							c-0.21-1.07-0.45-2.16-0.58-3.19c-0.07-1.04-0.03-2.01,0.27-2.82l-0.52,0.22c-0.58-0.78,0.21-1,0.33-1.61
							c-0.42,0.1-0.45,0.91-0.76,0.42c-0.45-3.46-0.23-7.1,0.47-10.64c0.73-3.54,1.76-7.01,2.89-10.33
							c0.36-1.23-0.15-1.74-0.57-2.34c-0.39-0.58-0.65-1.24,0.46-2.62c0.2,0.4,0.43,0.79,0.66,1.19c0.1-1.33,0.44-2.62,0.8-3.9
							c0.43-1.26,0.94-2.5,1.49-3.71c1.14-2.42,2.37-4.75,3.24-7.23c0.04,0.38,0.29,0.53,0.03,0.96c1.18-0.56,2.07-3.42,1.63-3.74
							c0.5-0.63,0.55,0.13,1.07-0.11c0.94-0.66,0.75-2.79,1.71-2.83c0.15-0.01,0.01,0.38-0.06,0.57c0.14-0.77,2.03-2.59,0.96-2.55
							c0.74-0.65,1.27-1.41,1.76-2.14c0.48-0.74,0.98-1.41,1.69-1.81c-0.01-0.68,0.63-1.23,1.18-1.74c0.56-0.5,1.04-0.94,0.68-1.52
							c0.44,0.52,1.23,0.11,1.96-0.59c0.74-0.7,1.48-1.64,1.71-2.3c-0.03,0.58,1.07-0.4,1.09,0.34c1.01-0.95,1.86-1.92,1.22-2.31
							c0.76-0.1,1.32-0.42,1.8-0.83c0.49-0.39,0.89-0.87,1.27-1.33c0.38-0.46,0.74-0.88,1.16-1.14c0.43-0.25,0.91-0.32,1.5-0.1
							c1.47-1.5,3.03-2.79,4.57-4.04c1.59-1.17,3.16-2.31,4.81-3.25c0.24,0.64-0.68,1.12-1.56,1.61c-0.86,0.52-1.67,1.03-1.26,1.61
							c2.8-2.2,4.22-4.11,7.62-5.23c0.92-0.19-0.26,0.75-0.45,1.09c0.75-0.5,1.55-0.86,2.35-1.19c0.8-0.32,1.59-0.64,2.38-0.9
							c1.6-0.5,3.12-1.06,4.56-1.8c0.03,0.12-0.27,0.35-0.55,0.53c0.59-0.21,1.45-0.19,1.23-0.77l-0.55,0.32
							c-1.22-0.58,1.94-2.49,1.97-2.94c-0.64,1.95,3.22-0.26,2.04,2.28c0.38-0.2,0.82-0.6,0.64-0.98c0.63-0.02,0.86,0.18,0.35,0.77
							c2.12-0.79,1.23-1.24,3.25-1.59c0.04,0.3-0.35,0.48-0.5,0.86c0.91-0.75,1.86-1.51,3.63-1.45c-0.08,0.19,0.15,0.4-0.37,0.46
							c1.46-0.23,2.68-0.77,3.97-1.15c1.28-0.41,2.63-0.73,4.29-0.47C92,23,94.06,22.08,94.24,23.2c0.58-0.14,1.16-0.24,1.74-0.33
							l-0.7-0.56c1.53,0.07,2.93-0.75,4.25-0.3c-0.39,0.12-0.78,0.26-1.17,0.41c0.97-0.06,1.93-0.02,2.89-0.03l-1.61-0.54
							c1.61-0.46-0.08-1.43,1.98-0.96c-0.44,0.1,1.58,0.1,2.31,0.89l-0.01,0c0.8-0.26,1.65-0.54,2.76-0.12
							c0.25,0.39-0.41,1.2-0.25,1.46c0.89-0.83,3.6,0.33,4.74-0.47c-0.36,0.16-0.49,0.74-0.41,0.87l0.77-0.61
							c0.66,0.4,0.73,0.53,0.52,0.97c2.07,0.6-0.37-1.54,2.01-0.38c-0.21,0.02-0.14,0.15-0.58,0.17c1.23,0.41,2.45,0.66,3.66,0.86
							c1.22,0.19,2.38,0.48,3.45,1.03c0.31,1.29-2.05-0.38-1.58,0.78c3.27,0.76,7.08,1.1,10.01,2.69l-0.51-0.36
							c1.11-1.29,1.88,1.79,3.71,1.84c-0.42-0.08-0.88,0.55-0.7,0.44c1.88,1.26,4.22,1.82,7.41,3.24l-0.58,0.12
							c0.92,1.03,2.8,2.11,3.84,3.12c0.58-0.07,1.2,0.48,1.16-0.3c1.1,2.25,2.86,3.34,4.67,4.42c0.88,0.56,1.76,1.11,2.51,1.77
							c0.74,0.68,1.33,1.5,1.68,2.53c-0.33-0.33-1.04-0.54-0.78-0.28l1.31,1.05l1.26,1.11c0.34-0.66,0.02-0.61-0.06-1.5
							c0.59,0.04,1.47,0.54,2.04,1.17c-1.37-0.84-0.82,0.75-0.68,1.48c0.09-0.22,0.41-0.21,0.54-0.39c0.19,2.15,1.26-0.67,2.16,1.74
							l-0.36,0.13c0.73,0.57,1.63,0.94,2.12,1.81c-0.4,0.81-0.87-0.55-1.43-0.2c0.83,1.06,2.86,1.26,2.9,2.76
							c-0.49-0.37-1.01-1.03-1.53-1.37c0.04,1.63,0.32,1.61,0.74,2.52l-0.04-0.09l0.91,2.13l-0.11-0.62
							c1.36,0.13,1.89,0.84,2.38,1.65c0.48,0.82,0.96,1.71,2.09,2.42c-2.19-1.36-0.83,0.04-1.71,0.32c0.05,0.64,0.21,1.54-0.13,1.44
							c1.15,0.61,0.34,1.81,1.93,2.71c-0.24,0.19,0.46,1.05-0.31,1.14c0.8,1.15,0.32-0.51,0.7-0.56c0.45,0.38,0.76,0.89,0.97,1.48
							c0.2,0.6,0.32,1.27,0.46,1.95c0.32,1.37,0.58,2.84,1.75,4.07c0.73,1.17,1.26,1.84,1.87,2.47c0.58,0.64,1.18,1.26,1.7,2.45
							c-0.25,0.94-1.2-0.42-1.2-0.42c-0.11,1.44,0.23,2.4,0.83,3.59c-0.3-0.2-0.46,0.11-0.71,0.55c0.26,0.99,1.17,0.47,1,1.89
							c-0.36-0.17-0.93-0.38-1.34-0.8c0.24,0.56,0.55,1.11,0.86,1.68c0.3,0.56,0.57,1.14,0.78,1.75c-0.46,0.4-0.87-0.64-1.25-1.03
							c0.4,1.35,0.96,3.52,1.75,3.89c0.07-0.31,0.15-0.62,0.21-0.94c0.1,0.51-0.65,0.33-0.85-0.02c-0.79-1.12,0.05-1.76,0.33-1.87
							l0.3,0.87c0.79-0.56,0.6-1.47,0.2-2.44c-0.43-0.97-1.12-1.99-1.23-2.88l1.36,0.51l-1.36-1.64c0.22-0.45,0.85-0.87,1.23-0.02
							c0.31-1.42-0.7-1.04-0.29-2.3c0.07-0.15,0.15-0.11,0.22,0l-0.66-1.17c0.31,0.18,0.8-0.43,0.81,0.39
							c0.13-2.47-1.94-3.36-1.26-4.48l0.13,0.16c-1.43-2.94-0.97-0.03-2.77-1.93c0.53-0.76,1.06-1.53,1.58-2.31l-0.98,0.03
							c-0.1-0.32-0.28-0.95,0.11-0.98c-1.05-0.91-0.29,0.34-1.11-0.1c0.21-1.83-2.13-3.84-0.96-4.8c-0.87-0.22,0.17,1.62-0.99,0.28
							c1.22-1.15-1.12-1.64-1.17-3.25c0.92,0.01,1.2,1.45,1.15-0.19c-0.82-0.07-1.07-0.74-1.27-1.5c-0.2-0.76-0.32-1.64-0.75-2.11
							c-0.49,0.26-0.91-0.27-1.43-1.04c-0.53-0.76-1.13-1.78-1.86-2.54c0.2-0.06-0.25-0.94-0.87-2.02
							c-0.31-0.55-0.65-1.15-0.98-1.72c-0.35-0.56-0.67-1.1-0.9-1.54l0.18-0.07c-1.1,0.4-2.18-1.29-3.35-2.2
							c0.53-0.4,0.9-0.38,1.66,0.02l-0.93-1.03c-0.48-0.01-0.91-0.2-1.59-0.78l0.83-0.3c-0.63-0.68-1.49-1.15-2.29-1.74
							c-0.41-0.29-0.81-0.61-1.2-0.98c-0.4-0.36-0.78-0.77-1.12-1.27c-0.61,0.49-0.11,2.81-2.24,1.54c0.21-0.37,0.62-0.96,1.21-0.65
							c-0.19-0.1-0.79-0.25-0.98-0.67l1.19,0.15c-0.58-0.95-0.8,0.06-1.38-0.56c0.41-0.43-0.18-0.74,0.21-1.01
							c0.2,0.1,0.39,0.69,0.79,0.73c-0.63-0.75-1.31-1.74-1.32-2.34c-0.15,0.31-0.52,0.61-1.11,0.22c-1.43-1.14-0.03-0.95-0.67-1.88
							c-0.61,0.05-1.29-1-1.85-0.31c-0.42-0.33-0.26-0.72-0.28-1.03c-0.96-0.31-3.71-2.47-3.35-1.09l0.16,0.19
							c-0.05-0.01-0.09-0.04-0.15-0.06c0.01,0,0,0,0.01,0l-0.01,0c-2.99-1.04-5.15-3.86-8.05-5.01l0.14-0.26
							c-1.8-0.51-3.74-1.68-5.21-1.58c-0.49-0.21-0.95-1-0.6-1.24c-1.38-0.36-1.63-0.12-3.36-1.28c1.51,0.02-0.29-0.6,1.49,0.16
							c-1.62-0.87-1.85-1.52-3.98-1.39c0.89-0.51-1.02-1.34-1.92-1.39l1.06,0.92c-0.97-0.19-1.75-0.55-2.58-0.84l0.74-0.83
							c-1.67-1.07-3.47-1.1-5.12-1.01c-1.66,0.06-3.13,0.02-4.37-1.19c-1.11,0.52,1.94,0.83,0.9,1.48
							c-1.66-0.42-3.22-2.16-3.77-2.22c-2.32-0.82-2.39,1.13-4.82,0.54c0.29,0.38,0.49,1.34-1.35,1.55
							c-1.68-0.25-2.02-1.64-0.91-1.85c0.42,0,0.61,0.13,0.58,0.25c0.57-0.09,1.31-0.19,0.66-0.62l-0.25,0.34
							c-0.42-0.21-1.22-0.35-1.85-0.51c-0.63-0.14-1.09-0.28-0.79-0.56c-1.34,0.31-0.58,0.57,0.38,0.78
							c-2.22-0.55-3.48-0.16-5.79-0.41c0.37,0.19,0.71,0.6,0.35,0.6c-3.37-0.34-1.46,0.66-3.7,0.97c-1.32-0.45,0.38-1.33-1.87-0.71
							c-1.43-0.26-0.38-0.92,0.16-1.25c-2.05,0.8-3.97-0.02-5.22-0.02l1.08-0.42c-0.65,0.25-1.19,0.31-1.75,0.38l0.74,0.63
							c-0.67-0.05-1.22,0.05-1.25-0.25c-0.59,0.57,0.68,1.08-0.52,1.94c-0.91-0.21-2.51,0.82-2.98-0.05
							c2.74-0.16-0.48-0.88,1.78-1.43c-0.42,0.19-0.96,0.28-1.64,0.27c-0.12-0.09,0.05-0.21,0.22-0.29c-2.76-0.3-0.98,1.3-3.62,1.85
							c0.22-0.59-0.86-0.86-1.26-0.62c1.07-0.26,0.71,0.72-0.14,1.38c-1.78,0.06-1.73,0.79-2.61,0.98L72,20.96
							c-0.19,0.62-1.04,0.73-2.12,1.28c-0.22-0.36,0.95-0.61,0.49-0.65c-0.96,1.32-3.18-0.04-4.71,1.24
							c-0.93-0.03-0.42-0.91-1.23-0.87c-1.72,1.38-2.42,0.14-4.24,1.56c0.88,0.4,0.9,0.2-0.24,1.45c1.04-0.63,2.07-1.29,3.13-1.89
							c-0.6,0.6-1.16,1.25-1.73,1.87c0.99-0.43,1.92-1.33,2.59-1.43c-0.81,0.93-0.77,0.73-0.07,1.09c-1.78-0.45-2.43,1.72-4.28,1.73
							l-0.7-1.63c-1.34,0.22-2.29,0.94-3.29,1.74c-0.98,0.83-2,1.76-3.58,2.39c0.36-0.1,0.73-0.18,1.1-0.26
							c-0.05,0.81-1.74,1.13-2.51,1.95c-0.23-0.56-0.92-0.38-1.52-0.45c0.27,0.31-2.1,1.34-1.67,2.49l-1.69,0.21
							c-1.2,0.67-1.56,1.5-1.9,2.29c-0.34,0.8-0.65,1.6-1.69,2.35c0.19-1-0.99-0.56,0.07-2.04c-0.68,0.56-1.35,0.98-1.1,1.3
							c-0.63,0.05-1.34,2.14-2.28,2.28c-0.1,0.44,0.23,0.98-0.51,1.6c-0.16-0.02-0.2-0.22-0.2-0.22c0.19,0.22-0.84,1.31,0.23,1.22
							c-1.59,0.23-2.89,1.59-4.09,2.95c-1.17,1.4-2.28,2.75-3.6,3.17c-0.51,0.81-1.13,1.65-1.67,2.52c-0.54,0.87-1.09,1.7-1.58,2.41
							c-0.08-0.19-0.24-0.18,0.01-0.4c-1.83,1.63,0.58,2.16-1.42,4.02c-1.57,0.62,0.35-1.46-0.43-0.95c-1.89-0.75-1.49,2.9-3.38,3.9
							c0.03-0.15,0.07-0.3,0.12-0.44c-0.63,0.45-0.87,1.3-1.1,2.27c-0.12,0.48-0.23,1-0.39,1.51c-0.14,0.52-0.32,1.05-0.59,1.55
							c0,0-0.11-0.17-0.26-0.14c0.2,1.82-0.63,4.62-1.13,6.73c-0.5-0.9-0.02-1.06-0.91-0.96c-0.23,0.96,1.25,0.18,0.82,2.06
							c-0.6,0.45-1.41,1.65-2.26,1.57l0.57-1.76c-1.34,0.55-0.76,2.28-1.19,3.16l-0.41-0.26c-0.68,2.78,0.48,3.12-0.31,6.04
							l0.42-0.23c0.75,1.83-0.92,1.22-0.39,2.99l-1.26,0.28c0.04,1.13,0.55,3.96,0.55,5.89c-0.77-1.17-0.91-3.51-1.2-5.02
							c-0.19,1.08-0.41,3.7,0.09,4.32c-0.06-0.44-0.27-1.03-0.03-1.44c0.71,1.44,1.06,3.19,0.87,5.31c-1.15-0.26-1.35,1.14-1.47,2.8
							c-0.17,1.66-0.07,3.55-0.96,4.38c1,3.81,0.14,7.72,1.17,12.19c1.46-1.91,0.29,1.29,2.04,0.64c0.33,0.98,0.41,1.37,0.31,1.49
							c-0.1,1.09-0.25,2.21-0.3,3.33c-0.3,0.87-0.67-0.85-1.03-0.66c0.48,2.27-0.49,1.14-0.52,2.77c0.55-0.49,1.12,0.51,1.28,1.85
							c0.07-0.68,0.18-1.36,0.27-2.04c0.91,1.41,0.78,2.17,0.65,2.96c-0.12,0.78-0.28,1.61,0.76,2.97c-0.32-0.25-0.62-0.5-0.91-0.77
							c0.43,0.74,1.05,2.17,1.76,3.56c0.73,1.37,1.68,2.64,2.68,3.06c-0.07,0.36-0.35,0.94-0.78,0.33c0.36,0.94,0.97,1.83,1.56,2.72
							c0.6,0.9,1.29,1.75,1.97,2.57c1.31,1.68,2.62,3.17,3.1,4.72l-0.54,0c0.51,0.56,1.43,0.58,1.61,1.59
							c-0.18,0.07-0.54,0.02-0.36,0.32c0.37,0.22,1.78,1.13,2.2,2.05c-0.31-0.11-0.62-0.22-0.92-0.35c1.98,3.44,4.74,3.84,7.17,5.92
							c-0.95,0.9,0.87,3.42,1.9,4.59l-0.17,0.1c3.27,3.24,6.59,4.23,10.28,6.16c0.33,0.65,0.92,1.34,1.7,2.01
							c0.79,0.65,1.74,1.3,2.75,1.96c1.03,0.62,2.11,1.26,3.15,1.88c1.04,0.64,2.06,1.21,2.92,1.87c-0.47-0.5,0.54-0.88,1.26-0.67
							c0.77,0.67,2.83,0.24,2.2,1.3l-0.31-0.16c0.1,0.69,0.65,1.17,1.36,1.55c0.71,0.38,1.59,0.62,2.32,0.92l0.8-1.39
							c0.37,0.45,0.82,0.84,1.32,1.17c0.5,0.31,1.06,0.57,1.64,0.79c1.16,0.44,2.42,0.74,3.64,0.93c2.43,0.46,4.64,0.63,5.52,1.89
							c1.05-0.15,2.26,0.03,3.29-0.19l-0.19,0.83c0.67,0.17,1.26,0.31,1.82,0.45c0.56,0.12,1.09,0.2,1.65,0.29
							c1.11,0.15,2.3,0.33,4.01,0.33l-0.75,0.55c1.94,0.18,2.61-2.24,4.33-2.22l0.48,1.28c1.67,0.03,3.34,0.37,5.03,0.43
							c0.84,0.04,1.68,0.06,2.52-0.03c0.83-0.12,1.65-0.32,2.45-0.67c-0.04,0.19-0.11,0.56-0.65,0.65c1.57-0.01,6.2,0.22,5.39-1.43
							c0.2,1.16,3.44-0.42,5.08-1.22l-0.11,0.87c1.28-1.36,1.25-1.67,3.23-2.4c0.51,0,0.58,0.56-0.11,0.49
							c1.73,0.07,1.06-1.09,3.1-1.16l-0.58,0.71c1.66-0.39,1.46-0.62,2.18-1.48c0.91-0.65,3.11-0.79,3.61-0.16
							c0.08-0.49,0.73-1.41,1.74-1.56c0.23,0.22-0.05,0.51-0.19,0.66c2.9-0.45,3.55-2.48,5.67-2.5c0.15,0.24,0.33,0.31,0.51,0.32
							c-2.1,0.89-3.79,1.58-3.66,1.45c0.28,0.72,2.05,0.1,1.1,1.67c1.18-1.14,2.98-3.28,4.72-3.78c0.11,0.03,0.22,0.06,0.33,0.13
							l-0.13,0.16c0.41-0.12,0.71-0.35,0.97-0.62c0.58-0.14,0.94-0.24,1.43-0.49c0.49,0.46,2.04-0.73,2.86-1.16
							c-0.49-0.69,0.6-1.2-0.71-1.21c0.16-0.02-0.1,0.17-0.62,0.5c-0.11,0.09-0.24,0.18-0.3,0.27c0.01-0.03,0.01-0.06,0.02-0.09
							c-0.52,0.3-1.2,0.7-1.97,1.15c0.43-0.73,0.91-1.4,2.02-1.49c0.14-0.7,0.31-1.42,0.41-1.8c1.64,0.36,4.06-0.35,4.73,0.04
							c2.09-1.95,5.27-4.11,5.61-6.46c0.47-0.66,0.98-0.23,1.37-0.23c-0.25,0.42-0.68,0.75-0.73,1.08c0.48-0.67,1.36-1.45,2.06-2.2
							c0.67-0.79,1.17-1.53,0.93-2.07c1.8-0.98-0.13,1.51,1.76-0.48l-0.04,0.5c2.57-1.25,3.63-3.37,4.63-5.49
							c0.53-1.04,1-2.14,1.71-3.14c0.73-0.99,1.61-1.97,2.95-2.84c-0.36,0.25-0.53,0.38-0.73,0.34c2.45-2.41,4.13-5.55,5.68-8.66
							c0.76-1.57,1.52-3.13,2.27-4.68c0.82-1.52,1.58-3.04,2.6-4.46c0.98-1.68,0.36-2.14,0.24-3.4l1-0.1
							c-0.1-0.73-0.26-1.48-0.4-2.21c0.03-1.45,0.92-2.44,1.66-3.62c0.77-1.16,1.5-2.48,1.08-4.39l-0.68,0.34
							c0.17-0.62,0.27-1.63,0.4-2.44c0.09-0.82,0.23-1.44,0.56-1.29c-0.09-0.15-0.57-0.5-0.19-0.95l0.48,0.02l-0.2-1.61l-0.28-1.6
							c0.52-2.4,1.88,0.54,2.18-3.06c-0.15-1.37-1.28-3.83-1.61-3.33c-0.04,0.53-0.33,1.35-0.81,1.38l-0.22-1.19
							c-1.39-0.24-2.8-1.07-3.85,1.69l0.8,1.98l-0.73,0.58c0.04-0.54,0.04-1.08,0.04-1.63c-0.64,0.89-0.14,1.5,0.19,2.18
							c-0.37,0.13-0.64,0.38-0.81,0.75c0.39,0.66,0.8,1.34,1.17,2.02c-0.57,0.17-0.97-0.96-1.43,0.27c0.5,0.96,1.33-0.71,1.54,0.81
							c-0.75,0.85-1.23,0.5-0.83,1.66c-0.38,0.1-0.57-0.16-0.67-0.61c0.33,1.02-0.22,2.55,0.42,3.17c-0.48,0.41-0.57,1.22-0.72,1.89
							c-0.18,0.66-0.39,1.18-1.02,0.99c0.23,0.36,0.62,1.9,0.44,2.79c-1.07-1.97-1.04,3.18-2.53,2.26c1,1.57-0.76,4.27-0.88,6.51
							c-0.06-0.15-0.18-0.46-0.04-0.6c-0.57,1.06-1.06,1.22-1.64,1.8c1.01,0.61,0.46,2.42,0.67,3.68c-0.85,0.41-1.05,0.04-1.19-0.41
							c-0.15-0.47-0.25-1.04-0.84-1.07c0.92,0.37-0.32,2.68,0.62,2.61c-1.15,0.67-0.76,0.7-1.88,0.74c1.2,0.9-0.29,1.03,0.01,2.28
							c-1.46,1.03-1.39-0.35-1.93,1.4c-0.42,0.23-0.53-0.05-0.52-0.39C159.61,134.23,159.69,133.82,159.69,133.82z M130.19,163.65
							c0-0.01-0.01-0.02-0.01-0.02c0.32-0.18,0.6-0.34,0.78-0.44C130.8,163.29,130.58,163.42,130.19,163.65z M126.9,165.18
							c0.42-0.15,0.93-0.36,1.46-0.6c0.24,0.21,0.24,0.54-0.11,0.67C128.36,165,127.5,165.19,126.9,165.18z M136.62,166.9
							c-0.48,0.4-0.74,0.36-0.9,0.25c0.25-0.15,0.53-0.34,0.89-0.61c0-0.04,0.01-0.09,0.01-0.13
							C136.66,166.58,136.67,166.75,136.62,166.9z"/>
						<path class="st1" d="M137.05,165.4c0.07-0.06,0.09-0.11,0.19-0.17c-0.15,0-0.28,0-0.41,0.01c-0.02,0.11-0.04,0.23-0.06,0.33
							C136.86,165.52,136.96,165.46,137.05,165.4z"/>
						<path class="st1" d="M141.93,33.14l-0.06-0.06c0.04,0.06,0.07,0.13,0.07,0.19C141.93,33.21,141.94,33.19,141.93,33.14z"/>
						<polygon class="st1" points="78.13,168.33 78.09,168.54 78.43,168.42 						"/>
						<path class="st1" d="M155.3,48.88c-0.03,0.08-0.04,0.18,0.01,0.34C155.34,49.17,155.33,49.04,155.3,48.88z"/>
						<path class="st1" d="M160.43,55.88l0.43,1.19C160.7,56.53,160.56,56.16,160.43,55.88z"/>
						<path class="st1" d="M163.57,61.75c0.17,0,0.28-0.03,0.38-0.06l0-0.01L163.57,61.75z"/>
						<path class="st1" d="M72.97,26.34c-0.08,0.03-0.16,0.06-0.23,0.1C72.22,26.75,72.59,26.58,72.97,26.34z"/>
						<path class="st1" d="M103.93,21.77c-0.35,0.11-0.7,0.21-1.05,0.28C103.43,22.17,103.87,22.25,103.93,21.77z"/>
						<path class="st1" d="M43.55,43.63c0-0.01,0-0.01-0.01-0.01c-0.05,0.05-0.1,0.09-0.16,0.14L43.55,43.63z"/>
						<path class="st1" d="M101.41,21.92c0.55,0.21,1.02,0.21,1.47,0.12C102.42,21.96,101.89,21.83,101.41,21.92z"/>
						<path class="st1" d="M171.91,88.94l0.01,0.32c0.05-0.01,0.1,0,0.14,0.02L171.91,88.94z"/>
						<path class="st1" d="M172.06,89.28c0.05,0.11,0.09,0.23,0.13,0.34C172.18,89.46,172.16,89.32,172.06,89.28z"/>
						<path class="st1" d="M172.46,90.34l-0.27-0.72C172.21,89.88,172.21,90.2,172.46,90.34z"/>
						<path class="st1" d="M170.78,80.27l-0.32-0.03C170.53,80.28,170.64,80.29,170.78,80.27z"/>
						<path class="st1" d="M170.04,77.71c0.13,0.63-0.23,1.7,0.16,2.51l0.26,0.02C169.91,79.95,170.74,78.15,170.04,77.71z"/>
						<path class="st1" d="M169.7,65.72c0.27,0.73,0.48,1.5,0.7,2.25c0.15-0.5,0.34-1.18,0.82-0.21
							C170.97,64.62,170.82,68.59,169.7,65.72z"/>
						<path class="st1" d="M166.81,59.01c0.77,1.02,0.41-0.25,0.6-0.28C166.74,58.18,166.58,58.05,166.81,59.01z"/>
						<path class="st1" d="M127.86,24.7l0.42-0.66C127.33,23.75,128.16,24.31,127.86,24.7z"/>
						<path class="st1" d="M117.26,25.16l0.74,0.69l0.61-0.54C118.17,25.23,117.71,25.21,117.26,25.16z"/>
						<polygon class="st1" points="112.87,18.44 113.32,18.43 111.65,18.35 						"/>
						<path class="st1" d="M31.29,45.51l0.91,0.4C32.51,45.3,31.82,44.49,31.29,45.51z"/>
						<path class="st1" d="M14.71,80.07c-0.28,0.15-0.56,0.48-0.73,0.86c-0.15,0.39-0.19,0.83-0.03,1.2
							C14.17,81.28,14.72,80.52,14.71,80.07z"/>
						<path class="st1" d="M66.54,172.94c-0.29,0.02-0.57,0.03-0.85,0.03c0.49,0.1,0.99,0.16,1.49,0.23L66.54,172.94z"/>
					</g>
				</g>
			</g>
		</g>
	</g>
</g>
<g id="Layer_1">
	<path class="st2" d="M78.5,67.5c11,0,22,0,33,0c7.33,8.33,14.67,16.67,22,25c-0.33,15.33-0.67,30.67-1,46
		c-9.67,4.67-19.33,9.33-29,14c-5.67,0-11.33,0-17,0c-10.33-5-19.67-9-30-14c0-15,0-31,0-46C64.17,84.17,70.83,75.83,78.5,67.5z"/>
	<polygon class="st2" points="148.5,51.3 148.05,77.26 134.11,86.34 118.25,68.09 129.24,56.29 	"/>
	<polygon class="st2" points="41.4,51.39 42,77.35 55.99,86.35 71.75,68 60.69,56.27 	"/>
	<path class="st3" d="M90.32,122.45l-15.71,23.2l12.07,5.85l16-0.2c3.98-1.72,7.96-3.43,11.94-5.15c-5.1-7.94-10.2-15.87-15.3-23.81
		"/>
	<polygon class="st3" points="46.72,60.29 47.44,73.31 56.28,80.51 65.52,69.71 56.72,60.51 	"/>
	<polygon class="st3" points="142.54,60.08 142.13,73.11 133.46,80.51 123.97,69.93 132.55,60.53 	"/>
</g>
<g id="eye">
	<circle class="st4" cx="75" cy="106" r="4.5"/>
	<circle class="st5" cx="77" cy="105" r="2"/>
	<circle class="st5" cx="73" cy="108" r="1"/>
	<g>
		<path d="M64.5,108.5c0.46-2.05,1.38-4,2.85-5.67c0.74-0.82,1.64-1.57,2.72-2.11c1.08-0.53,2.33-0.84,3.64-0.74
			c1.19,0.12,2.12,0.35,3.12,0.58c0.98,0.24,1.95,0.49,2.92,0.78c1.94,0.56,3.87,1.21,5.76,2.16c-2.08,0.29-4.13,0.27-6.17,0.17
			c-1.02-0.06-2.03-0.17-3.03-0.3c-0.99-0.12-2.03-0.32-2.85-0.39c-1.44-0.13-3.04,0.52-4.52,1.59
			C67.43,105.64,66.04,107.06,64.5,108.5z"/>
	</g>
	<circle class="st4" cx="115" cy="106" r="4.5"/>
	<circle class="st5" cx="113" cy="105" r="2"/>
	<g>
		<path d="M125.5,108.5c-1.54-1.44-2.93-2.86-4.43-3.93c-1.48-1.07-3.09-1.72-4.52-1.59c-0.82,0.07-1.86,0.27-2.85,0.39
			c-1,0.13-2.01,0.24-3.03,0.3c-2.04,0.1-4.08,0.12-6.17-0.17c1.89-0.95,3.82-1.6,5.76-2.16c0.97-0.29,1.94-0.54,2.92-0.78
			c1-0.23,1.93-0.46,3.12-0.58c1.31-0.11,2.56,0.2,3.64,0.74c1.08,0.54,1.98,1.29,2.72,2.11C124.12,104.5,125.04,106.45,125.5,108.5
			z"/>
	</g>
	<circle class="st5" cx="117" cy="108" r="1"/>
	<path class="st6" d="M92.4,115.5h5.7c0.63,0.63,1.27,1.27,1.9,1.9c0,1.48,0,2.96,0,4.43c-1.48,1.06-2.96,2.11-4.43,3.17
		c-1.69-1.06-3.38-2.11-5.07-3.17c0-1.48,0-2.96,0-4.43C91.13,116.77,91.77,116.13,92.4,115.5z"/>
</g>
</svg>
